{"title":"[OOTR] Naruto Shippuuden Episodes 144-178 MANGA EDIT MP4","uid":8094257,"size":1653340937,"categoryP":"video","categoryS":"tv_shows","magnet":"?xt=urn:btih:4aa9f17d68ddef042f2ed322a156a1a5440886f3&amp;dn=%5BOOTR%5D+Naruto+Shippuuden+Episodes+144-178+MANGA+EDIT+MP4&amp;tr=udp%3A%2F%2Ftracker.openbittorrent.com%3A80&amp;tr=udp%3A%2F%2Fopen.demonii.com%3A1337&amp;tr=udp%3A%2F%2Ftracker.coppersurfer.tk%3A6969&amp;tr=udp%3A%2F%2Fexodus.desync.com%3A6969","seeders":0,"leechers":1,"uploader":"OOTR","files":1,"time":1359798795,"description":"Naruto Shippuuden Episodes 144-178, sans filler, intro, outros, MANGA EDIT\n\nJapanese Audio/ English H.Sub\n\nFormat : MPEG-4\nCodec ID : M4V\nFile size : 1.54 GiB\nDuration : 6h 24mn\nOverall bit rate mode : Variable\nOverall bit rate : 573 Kbps\nEncoded date : UTC 2013-02-02 08:37:47\n\nVideo\nID : 1\nFormat : AVC\nFormat/Info : Advanced Video Codec\nFormat profile : &lt;a class=&quot;__cf_email__&quot; href=&quot;/cdn-cgi/l/email-protection&quot; data-cfemail=&quot;3d7f5c4e58515453587d710e130c&quot;&gt;[email&amp;#160;protected]&lt;/a&gt;&lt;script cf-hash='f9e31' type=&quot;text/javascript&quot;&gt;\n/* &lt;![CDATA[ */!function(){try{var t=&quot;currentScript&quot;in document?document.currentScript:function(){for(var t=document.getElementsByTagName(&quot;script&quot;),e=t.length;e--;)if(t[e].getAttribute(&quot;cf-hash&quot;))return t[e]}();if(t&amp;&amp;t.previousSibling){var e,r,n,i,c=t.previousSibling,a=c.getAttribute(&quot;data-cfemail&quot;);if(a){for(e=&quot;&quot;,r=parseInt(a.substr(0,2),16),n=2;a.length-n;n+=2)i=parseInt(a.substr(n,2),16)^r,e+=String.fromCharCode(i);e=document.createTextNode(e),c.parentNode.replaceChild(e,c)}}}catch(u){}}();/* ]]&gt; */&lt;/script&gt;\nFormat settings, CABAC : No\nFormat settings, ReFrames : 2 frames\nFormat settings, GOP : M=1, N=72\nCodec ID : avc1\nCodec ID/Info : Advanced Video Coding\nDuration : 6h 24mn\nSource duration : 6h 24mn\nBit rate mode : Variable\nBit rate : 445 Kbps\nWidth : 848 pixels\nHeight : 480 pixels\nDisplay aspect ratio : 16:9\nFrame rate mode : Variable\nFrame rate : 23.976 fps\nMinimum frame rate : 23.976 fps\nMaximum frame rate : 24.000 fps\nStandard : NTSC\nColor space : YUV\nChroma subsampling : 4:2:0\nBit depth : 8 bits\nScan type : Progressive\nBits/(Pixel*Frame) : 0.046\nStream size : 1.20 GiB (78%)\nSource stream size : 1.20 GiB (78%)\nLanguage : English\nEncoded date : UTC 2013-02-02 08:37:47\n\nAudio\nID : 2\nFormat : AAC\nFormat/Info : Advanced Audio Codec\nFormat profile : LC\nCodec ID : 40\nDuration : 6h 24mn\nSource duration : 6h 24mn\nBit rate mode : Variable\nBit rate : 126 Kbps\nMaximum bit rate : 196 Kbps\nChannel(s) : 2 channels\nChannel positions : Front: L R\nSampling rate : 44.1 KHz\nCompression mode : Lossy\nStream size : 345 MiB (22%) ","torrent":{"xt":"urn:btih:4aa9f17d68ddef042f2ed322a156a1a5440886f3","amp;dn":"%5BOOTR%5D+Naruto+Shippuuden+Episodes+144-178+MANGA+EDIT+MP4","amp;tr":["udp%3A%2F%2Ftracker.openbittorrent.com%3A80","udp%3A%2F%2Fopen.demonii.com%3A1337","udp%3A%2F%2Ftracker.coppersurfer.tk%3A6969","udp%3A%2F%2Fexodus.desync.com%3A6969"],"infoHash":"4aa9f17d68ddef042f2ed322a156a1a5440886f3","infoHashBuffer":{"type":"Buffer","data":[74,169,241,125,104,221,239,4,47,46,211,34,161,86,161,165,68,8,134,243]},"announce":[],"urlList":[]}}